<svg aria-hidden="true" style="position: absolute; width: 0; height: 0; overflow: hidden;" version="1.1" xmlns="http://www.w3.org/2000/svg" xmlns:xlink="http://www.w3.org/1999/xlink">
<defs>
<symbol id="icon-arrow-left" viewBox="0 0 46 32">
<path fill="#fff" style="fill: var(--color1, #fff)" d="M0.282 15.293l14.444-15c0.376-0.391 0.986-0.391 1.362 0s0.376 1.023 0 1.414l-12.801 13.293h41.972c0.532 0 0.963 0.447 0.963 1s-0.431 1-0.963 1h-41.972l12.801 13.293c0.376 0.391 0.376 1.023 0 1.414-0.188 0.195-0.434 0.293-0.681 0.293s-0.493-0.098-0.681-0.293l-14.444-15c-0.376-0.391-0.376-1.023 0-1.414z"></path>
</symbol>
<symbol id="icon-arrow-right" viewBox="0 0 46 32">
<path fill="#626262" style="fill: var(--color2, #626262)" d="M45.94 15.293l-14.444-15c-0.376-0.391-0.986-0.391-1.362 0s-0.376 1.023 0 1.414l12.801 13.293h-41.972c-0.532 0-0.963 0.447-0.963 1s0.431 1 0.963 1h41.972l-12.801 13.293c-0.376 0.391-0.376 1.023 0 1.414 0.188 0.195 0.434 0.293 0.681 0.293s0.493-0.098 0.681-0.293l14.444-15c0.376-0.391 0.376-1.023 0-1.414z"></path>
</symbol>
<symbol id="icon-main-arrow-right" viewBox="0 0 115 32">
<path d="M114.692 14.727l-19.6-14.2c-0.677-0.703-1.774-0.703-2.451 0s-0.677 1.842 0 2.545l16.641 11.127h-107.549c-0.958 0-1.733 0.805-1.733 1.8s0.775 1.8 1.733 1.8h107.549l-16.641 11.127c-0.677 0.703-0.677 1.842 0 2.545 0.338 0.352 0.782 0.527 1.226 0.527s0.887-0.176 1.225-0.527l19.6-14.2c0.677-0.703 0.677-1.842 0-2.545z"></path>
</symbol>
</defs>
</svg>
