<svg aria-hidden="true" style="position: absolute; width: 0; height: 0; overflow: hidden;" version="1.1" xmlns="http://www.w3.org/2000/svg" xmlns:xlink="http://www.w3.org/1999/xlink">
<defs>
<symbol id="icon-logo" viewBox="0 0 156 32">
<path d="M-170.796-36.178h370.577v64.776h-370.577v-64.776z"></path>
</symbol>
<symbol id="icon-finder" viewBox="0 0 31 32">
<path d="M30.376 30.259l-7.918-8.13c2.073-2.351 3.347-5.459 3.347-8.88-0.001-7.318-5.777-13.249-12.903-13.249s-12.902 5.931-12.902 13.249c0 7.318 5.776 13.249 12.902 13.249 3.079 0 5.903-1.111 8.121-2.959l7.948 8.162c0.387 0.398 1.016 0.398 1.403 0s0.388-1.044 0.001-1.442zM12.902 24.46c-6.029 0-10.917-5.019-10.917-11.211s4.888-11.211 10.917-11.211c6.030 0 10.917 5.019 10.917 11.211s-4.888 11.211-10.917 11.211z"></path>
</symbol>
<symbol id="icon-goods" viewBox="0 0 33 32">
<path d="M32.971 10.868c-0.162-0.157-0.389-0.231-0.614-0.201h-8.803v-3.824c0-3.779-3.117-6.843-6.961-6.843s-6.961 3.064-6.961 6.843v3.824h-8.804c-0.246 0-0.491 0-0.614 0.201-0.165 0.156-0.242 0.382-0.205 0.604l3.071 16.503c0.429 2.302 2.451 3.987 4.832 4.025h17.361c2.387-0.058 4.405-1.756 4.832-4.065l3.071-16.463c0.037-0.222-0.040-0.448-0.205-0.604zM11.27 6.843c0-2.89 2.383-5.233 5.323-5.233s5.323 2.343 5.323 5.233v3.824h-10.646v-3.824zM28.467 27.733c-0.276 1.526-1.618 2.642-3.194 2.657h-17.361c-1.576-0.015-2.918-1.131-3.194-2.657l-2.907-15.457h29.564l-2.907 15.457z"></path>
<path d="M22.735 20.126c0.452 0 0.819-0.36 0.819-0.805v-2.415c0-0.445-0.367-0.805-0.819-0.805s-0.819 0.36-0.819 0.805v2.415c-0 0.445 0.367 0.805 0.819 0.805z"></path>
<path d="M10.451 20.126c0.452 0 0.819-0.36 0.819-0.805v-2.415c0-0.445-0.367-0.805-0.819-0.805s-0.819 0.36-0.819 0.805v2.415c0 0.445 0.367 0.805 0.819 0.805z"></path>
</symbol>
<symbol id="icon-login" viewBox="0 0 28 32">
<path d="M14.101 17.243c0.035 0 0.069 0 0.111 0 0.014 0 0.028 0 0.042 0 0.021 0 0.048 0 0.069 0 2.029-0.033 3.67-0.716 4.882-2.021 2.666-2.876 2.223-7.806 2.174-8.277-0.173-3.532-1.918-5.222-3.359-6.010-1.073-0.59-2.327-0.908-3.726-0.934h-0.048c-0.007 0-0.021 0-0.028 0h-0.042c-0.769 0-2.278 0.119-3.726 0.908-1.454 0.789-3.227 2.478-3.4 6.037-0.048 0.471-0.492 5.401 2.174 8.277 1.205 1.305 2.846 1.988 4.875 2.021zM8.9 7.11c0-0.020 0.007-0.040 0.007-0.053 0.229-4.751 3.753-5.262 5.263-5.262h0.028c0.014 0 0.035 0 0.055 0 1.87 0.040 5.048 0.769 5.263 5.262 0 0.020 0 0.040 0.007 0.053 0.007 0.046 0.492 4.552-1.71 6.925-0.873 0.941-2.036 1.405-3.566 1.418-0.014 0-0.021 0-0.035 0s-0.021 0-0.035 0c-1.523-0.013-2.694-0.477-3.559-1.418-2.195-2.359-1.724-6.885-1.717-6.925z"></path>
<path d="M28.443 25.42c0-0.007 0-0.013 0-0.020 0-0.053-0.007-0.106-0.007-0.166-0.041-1.312-0.132-4.38-3.137-5.361-0.021-0.007-0.048-0.013-0.069-0.020-3.123-0.762-5.72-2.485-5.748-2.505-0.423-0.285-1.004-0.185-1.302 0.219s-0.194 0.961 0.229 1.246c0.118 0.080 2.874 1.915 6.323 2.763 1.613 0.55 1.794 2.2 1.842 3.711 0 0.060 0 0.113 0.007 0.166 0.007 0.596-0.035 1.518-0.145 2.048-1.122 0.61-5.519 2.717-12.209 2.717-6.662 0-11.087-2.114-12.216-2.724-0.111-0.53-0.159-1.451-0.145-2.048 0-0.053 0.007-0.106 0.007-0.166 0.048-1.511 0.229-3.161 1.842-3.711 3.449-0.848 6.205-2.69 6.322-2.763 0.422-0.285 0.526-0.842 0.229-1.246s-0.879-0.504-1.302-0.219c-0.028 0.020-2.611 1.743-5.748 2.505-0.028 0.007-0.048 0.013-0.069 0.020-3.005 0.987-3.095 4.055-3.137 5.361 0 0.060 0 0.113-0.007 0.166 0 0.007 0 0.013 0 0.020-0.007 0.345-0.014 2.114 0.353 3.002 0.069 0.172 0.194 0.318 0.36 0.417 0.208 0.133 5.187 3.168 13.517 3.168s13.31-3.042 13.518-3.168c0.159-0.099 0.291-0.245 0.36-0.417 0.346-0.881 0.339-2.651 0.332-2.995z"></path>
</symbol>
</defs>
</svg>
